<svg xmlns="http://www.w3.org/2000/svg" viewBox="0 0 625.77 219.97"><defs><style>.cls-1{fill:#333;}.cls-2{fill:#f15a24;}</style></defs><title>Asset 2</title><g id="Layer_2" data-name="Layer 2"><g id="Layer_1-2" data-name="Layer 1"><path class="cls-1" d="M148.85,80.91a146.32,146.32,0,0,0-26-43.79A125.4,125.4,0,0,0,90.65,10.25C78.85,3.54,67.21,0,57,0A11.56,11.56,0,0,0,45.8,14.5c6.11,23.36-7,43.49-20.92,64.8C12.65,98.05,0,117.44,0,140.26a79.7,79.7,0,1,0,159.4,0,166.35,166.35,0,0,0-10.55-59.35M79.7,196.83a56.63,56.63,0,0,1-56.56-56.57c0-15.94,10.26-31.67,21.12-48.31,12.4-19,26.34-40.37,26.24-65.8,8.07,3.17,21.24,10.34,34.87,26.11a123.23,123.23,0,0,1,21.85,36.88,143.25,143.25,0,0,1,9,51.12A56.63,56.63,0,0,1,79.7,196.83"/><path class="cls-2" d="M104,123.05c-11.84-15.66-26.2-24.64-39.39-24.64A11.58,11.58,0,0,0,53.2,112.15c1.21,6.36-1.56,12.37-5.39,20.68-4.67,10.14-10,21.62-10,37.72,0,15.47,4.36,28.3,12.6,37.08A39.57,39.57,0,0,0,79.7,220,39.59,39.59,0,0,0,109,207.63c8.24-8.78,12.59-21.61,12.59-37.08,0-15.18-6.58-32.93-17.6-47.5M92.08,191.79a16.61,16.61,0,0,1-12.38,5,16.63,16.63,0,0,1-12.38-5C63.18,187.38,61,180,61,170.55c0-11,3.81-19.29,7.84-28a98.25,98.25,0,0,0,6.31-16.16A56.68,56.68,0,0,1,85.5,137c8.08,10.69,12.91,23.22,12.91,33.54,0,9.48-2.19,16.83-6.33,21.24"/><path class="cls-1" d="M196.19,184V99.62H183.38q0-8.13.2-11.8c.13-2.44.58-4,1.32-4.57a5.6,5.6,0,0,1,3.56-.92h7.73V70.54q0-12,3.35-19.21a26.09,26.09,0,0,1,9-11,33.19,33.19,0,0,1,12.3-5.08A71.34,71.34,0,0,1,234.61,34q12.6,0,19.11,2.94t6.51,8.85a37.34,37.34,0,0,1-.61,6,28,28,0,0,1-1.63,6,38.65,38.65,0,0,0-10.47-3.86,53.92,53.92,0,0,0-12.1-1.42,51.6,51.6,0,0,0-7.52.51A12.7,12.7,0,0,0,222,55.29a11.57,11.57,0,0,0-3.77,5.29,26.91,26.91,0,0,0-1.32,9.35v12.4h11.8c0,5.29-.11,9.19-.31,11.69s-.58,4.07-1.12,4.68a3.37,3.37,0,0,1-2.64.92h-7.73v80.51c-.68,2.57-2,3.86-3.86,3.86Zm39.44,0V91.48c0-3.11.57-5.28,1.73-6.5s3.25-2,6.3-2.24,7.42-.41,13.11-.41v97.8a3.32,3.32,0,0,1-.91,2.74c-.61.48-2.38.78-5.29.92S242.67,184,235.63,184Z"/><path class="cls-1" d="M271.2,184V89.45a55.15,55.15,0,0,1,12.71-6.51,44.33,44.33,0,0,1,15.35-2.64q8.13,0,11,2.34c1.9,1.56,2.85,4,2.85,7.22a47.25,47.25,0,0,1-.41,5.38,26,26,0,0,1-1.83,6.81,16.46,16.46,0,0,0-4.07-1.42,20.7,20.7,0,0,0-4.06-.4,16.82,16.82,0,0,0-5.09.91,15.5,15.5,0,0,0-5.08,2.74l-.2,76.25a3.32,3.32,0,0,1-.92,2.74c-.61.48-2.37.78-5.28.92S278.25,184,271.2,184Z"/><path class="cls-1" d="M343.79,186a38.9,38.9,0,0,1-12.91-2,22.36,22.36,0,0,1-10.07-7.32q-4.26-5.28-6.6-14.64t-2.34-23.79q0-18.69,2.95-30.19t7.92-17.48a25,25,0,0,1,11.49-8.13,43.24,43.24,0,0,1,13.62-2.14q12.21,0,19,7.83t6.81,25.11q0,7.11-.51,14.74A64.71,64.71,0,0,1,371,141.29a100,100,0,0,1-14.23,2q-7.94.6-15.45.91t-17.08.31l.41-16.67q6.3.19,11.08.2a84.39,84.39,0,0,0,9.35-.51,33.65,33.65,0,0,0,7.42-1.52,23.71,23.71,0,0,0,.81-5.29c.14-2.17.21-4.07.21-5.69q0-10.17-1.83-13.42T345,98.4a7.18,7.18,0,0,0-5.09,2.13,15.56,15.56,0,0,0-3.66,6.71,60.62,60.62,0,0,0-2.13,11.89q-.72,7.32-.71,17.89a105.72,105.72,0,0,0,.71,13.42,28.92,28.92,0,0,0,2.34,8.85,11,11,0,0,0,4.57,5,15.29,15.29,0,0,0,7.42,1.62,40.05,40.05,0,0,0,11.39-1.62A66.46,66.46,0,0,0,370.62,160a29.66,29.66,0,0,1,1.43,6.81,69.72,69.72,0,0,1,.4,7q0,3.87-4,6.61A29.42,29.42,0,0,1,358,184.6,66.56,66.56,0,0,1,343.79,186Z"/><path class="cls-1" d="M409.86,186q-8.94,0-13.31-3.45a16.81,16.81,0,0,1-5.8-10.07A74.54,74.54,0,0,1,389.33,157V100H376.52q0-7.92.2-11.69t1.12-4.88a3.61,3.61,0,0,1,3-1.12h8.54V52.45c0-2.31.57-3.9,1.73-4.78s3.21-1.42,6.2-1.63,7.25-.3,12.81-.3V82.33H428c0,5.29,0,9.19-.1,11.69s-.41,4.14-1,4.88a3.59,3.59,0,0,1-2.95,1.12H410.07v56.52c0,1.9.06,3.8.2,5.69a8.35,8.35,0,0,0,1.42,4.48,4.78,4.78,0,0,0,4.07,1.62,22.55,22.55,0,0,0,5.49-.61,24.72,24.72,0,0,0,5.49-2.23c.27,1.35.54,2.88.81,4.57a35.68,35.68,0,0,1,.41,5.59c0,3-1,5.22-2.95,6.71a16.14,16.14,0,0,1-7.12,2.95A48.14,48.14,0,0,1,409.86,186Z"/><path class="cls-1" d="M459.88,186A56.27,56.27,0,0,1,449,185a21.58,21.58,0,0,1-9.25-4.16,20.59,20.59,0,0,1-6.4-9.46q-2.34-6.3-2.34-16.87,0-10.37,2-17a25,25,0,0,1,5.59-10.26,17.59,17.59,0,0,1,7.93-4.88,33.22,33.22,0,0,1,9.05-1.22,59.43,59.43,0,0,1,6.61.5,16.56,16.56,0,0,1,7,2.34V109.37a11.67,11.67,0,0,0-1-5.38,6.16,6.16,0,0,0-3.15-2.85,15,15,0,0,0-5.79-.91,80.25,80.25,0,0,0-25.21,4.47,21.74,21.74,0,0,1-2.24-6.41,31.82,31.82,0,0,1-.61-5.59,11,11,0,0,1,.71-3.76,6.87,6.87,0,0,1,1.93-3q2.44-1.62,10.58-3.66a84.69,84.69,0,0,1,20.12-2q13.62,0,19.52,5.49T490,105.1v33.55q0,12-.21,22.57T489,179.31a48.94,48.94,0,0,1-12.3,4.78A66.63,66.63,0,0,1,459.88,186Zm1.62-17.08a13,13,0,0,0,4.17-.71,6.17,6.17,0,0,0,2.95-1.73q.19-2.64.41-7.62t.2-10.57V138a7.72,7.72,0,0,0-3.35-1.32,22.49,22.49,0,0,0-3.36-.31,10.42,10.42,0,0,0-3.86.72,6.79,6.79,0,0,0-3.15,2.64,14.85,14.85,0,0,0-2,5.39,44.83,44.83,0,0,0-.71,8.74,41.08,41.08,0,0,0,.51,7.22,13.33,13.33,0,0,0,1.63,4.57,6,6,0,0,0,2.74,2.54A9.47,9.47,0,0,0,461.5,168.94Z"/><path class="cls-1" d="M520.66,186a49.9,49.9,0,0,1-17.07-2.54q-6.91-2.53-6.92-8.84a24.82,24.82,0,0,1,.72-5.39,23.69,23.69,0,0,1,2.54-6.41,46,46,0,0,0,9.15,3.46,37,37,0,0,0,9.35,1.22c4.06,0,7.15-.88,9.25-2.64a9,9,0,0,0,3.15-7.32,19.48,19.48,0,0,0-1-6,18,18,0,0,0-4.67-6.81l-18.3-18.09a35.83,35.83,0,0,1-8-11.29,26.8,26.8,0,0,1-2.34-10.27,24.77,24.77,0,0,1,3.25-12.7q3.25-5.59,10.68-8.85T530,80.3q11,0,16.36,2.14t7,5A10.81,10.81,0,0,1,555,92.7,15.71,15.71,0,0,1,551,102.87a34.43,34.43,0,0,0-8.75-3.56,39.5,39.5,0,0,0-9.55-1.12c-3.8,0-6.68.65-8.64,1.93a6.1,6.1,0,0,0-2.95,5.39,10.47,10.47,0,0,0,1.12,4.27q1.11,2.44,5.39,6.51l16.26,15.45q6.3,6.7,8.54,12.2a35,35,0,0,1,2.24,13.21q0,13.42-9.15,21.15T520.66,186Z"/><path class="cls-1" d="M561.94,184V43.71q0-4.68,1.72-6.51c1.15-1.22,3.22-2,6.2-2.24s7.32-.4,13-.4V87.21a40.65,40.65,0,0,1,10.47-5,40,40,0,0,1,12.3-1.93q6.9,0,10.57,2.54a13.29,13.29,0,0,1,5.08,6.51,24.15,24.15,0,0,1,1.42,8.23,42.41,42.41,0,0,1-1.32,10.88A41,41,0,0,1,618,117.4a38.49,38.49,0,0,1-4.48,6.71c-1.56,1.83-2.94,3.36-4.16,4.58a28.94,28.94,0,0,1,8.64,8.74A44.46,44.46,0,0,1,623.44,150a73.39,73.39,0,0,1,2.33,15.65q0,3.47-.1,7.32c-.07,2.58-.24,5.08-.51,7.52a3.32,3.32,0,0,1-1.32,2.44c-.74.54-2.71.85-5.89.92s-8.64.1-16.37.1q.4-5.9.61-11.49c.13-3.72.13-7.22,0-10.47a82.77,82.77,0,0,0-1.32-10.47,32.22,32.22,0,0,0-2.44-7.72,10.17,10.17,0,0,0-3.76-4.48,6.83,6.83,0,0,0-5.08-.71,14.16,14.16,0,0,0-3.26,1.12,29.91,29.91,0,0,0-3.45,2.13v38.23a3.58,3.58,0,0,1-.82,2.74c-.54.48-2.27.78-5.18.92S569,184,561.94,184Zm20.94-56.32a37.93,37.93,0,0,0,8.94-5.59,22.66,22.66,0,0,0,5.69-7.32,21.2,21.2,0,0,0,2-9.45c0-4.34-1.77-6.51-5.29-6.51a10.78,10.78,0,0,0-5.9,1.83,22.18,22.18,0,0,0-5.48,5.29Z"/></g></g></svg>